<svg width="20" height="20" viewBox="0 0 20 20" fill="none" xmlns="http://www.w3.org/2000/svg">
<path d="M12.9169 6.25L15.8336 3.33333M17.5002 1.66666L15.8336 3.33333L17.5002 1.66666ZM9.4919 9.675C9.92218 10.0996 10.2642 10.605 10.4984 11.1623C10.7325 11.7196 10.8541 12.3177 10.8561 12.9222C10.8581 13.5267 10.7405 14.1256 10.5102 14.6844C10.2798 15.2433 9.94111 15.751 9.51368 16.1785C9.08625 16.6059 8.5785 16.9445 8.01965 17.1749C7.4608 17.4053 6.8619 17.5229 6.25742 17.5209C5.65295 17.5188 5.05485 17.3973 4.49755 17.1631C3.94026 16.929 3.43478 16.5869 3.01023 16.1567C2.17534 15.2922 1.71336 14.1345 1.72381 12.9327C1.73425 11.731 2.21627 10.5814 3.06606 9.73166C3.91585 8.88188 5.0654 8.39985 6.26714 8.38941C7.46888 8.37897 8.62664 8.84094 9.49106 9.67583L9.4919 9.675ZM9.4919 9.675L12.9169 6.25L9.4919 9.675ZM12.9169 6.25L15.4169 8.75L18.3336 5.83333L15.8336 3.33333L12.9169 6.25Z" stroke="#8A8A8A" stroke-linecap="round" stroke-linejoin="round"/>
</svg>
